PathFileType  4	(X/Y/Z) C:\Users\antoi\Documents\MyRepositories\mobilecap\ResultsAnalysis
DataRate	CameraRate	NumFrames	NumMarkers	Units	OrigDataRate	OrigDataStartFrame	OrigNumFrames
100.0	100.0	4	51	mm	100.0	116	132
Frame#	Time	r_knee			r_shank_antsup			r_ankle			r_calc			r_5meta			r_toe			L_knee			L_shank_antsup			L_ankle			L_calc			L_5meta			L_toe			r_sh2			r_sh3			r_sh4			L_sh2			L_sh3			r_thigh1			r_thigh2			r_thigh3			r_thigh4			r_thigh5			L_thigh1			L_thigh2			L_thigh3			L_thigh4			r.ASIS			r.PSIS			L.ASIS			L.PSIS			C7			R_Shoulder			L_Shoulder			R_Sternum			L_Sternum			R_humerus			R_elbow_med			R_elbow_lat			R_forearm			R_wrist_radius			R_wrist_ulna			L_humerus			L_elbow_med			L_elbow_lat			L_forearm			L_wrist_radius			L_wrist_ulna			R_HJC			L_HJC			R_HJC_reg			L_HJC_reg			
		X1	Y1	Z1	X2	Y2	Z2	X3	Y3	Z3	X4	Y4	Z4	X5	Y5	Z5	X6	Y6	Z6	X7	Y7	Z7	X8	Y8	Z8	X9	Y9	Z9	X10	Y10	Z10	X11	Y11	Z11	X12	Y12	Z12	X13	Y13	Z13	X14	Y14	Z14	X15	Y15	Z15	X16	Y16	Z16	X17	Y17	Z17	X18	Y18	Z18	X19	Y19	Z19	X20	Y20	Z20	X21	Y21	Z21	X22	Y22	Z22	X23	Y23	Z23	X24	Y24	Z24	X25	Y25	Z25	X26	Y26	Z26	X27	Y27	Z27	X28	Y28	Z28	X29	Y29	Z29	X30	Y30	Z30	X31	Y31	Z31	X32	Y32	Z32	X33	Y33	Z33	X34	Y34	Z34	X35	Y35	Z35	X36	Y36	Z36	X37	Y37	Z37	X38	Y38	Z38	X39	Y39	Z39	X40	Y40	Z40	X41	Y41	Z41	X42	Y42	Z42	X43	Y43	Z43	X44	Y44	Z44	X45	Y45	Z45	X46	Y46	Z46	X47	Y47	Z47	X48	Y48	Z48	X49	Y49	Z49	X50	Y50	Z50	X51	Y51	Z51	

116	1.15000000	1415.98898	491.97753	-109.40188	1476.44554	408.44280	-126.34560	1463.13019	86.98922	-151.56496	1406.51117	54.32365	-203.43403	1587.78545	51.64035	-119.43718	1615.49528	87.79575	-173.58164	1145.73247	478.84653	-360.59791	1127.98745	382.51678	-344.74923	876.20716	154.54045	-323.92381	792.22019	158.33670	-271.91207	929.78239	40.83913	-349.15318	984.51182	49.10448	-294.03032	1491.21259	296.69105	-136.81745	1416.09298	394.98797	-81.77748	1424.82977	280.70704	-87.95784	1072.83170	440.35908	-384.46405	992.92621	349.08175	-385.28969	1364.10064	765.10003	-62.18956	1408.45038	666.18760	-86.44379	1370.33837	616.91537	-58.48973	1263.90929	714.64847	-46.01030	1315.33060	615.11837	-73.25467	1288.63807	702.26058	-380.49328	1268.57420	565.99690	-354.57625	1186.10616	710.73609	-417.70024	1163.81959	583.12212	-380.07628	1340.06232	941.08049	-103.45451	1133.40369	960.15816	-183.82784	1342.70995	927.85597	-359.79319	1138.31838	965.74787	-277.65871	1164.35794	1422.73031	-241.87036	1212.93440	1393.03607	-69.49810	1261.13052	1392.53881	-385.23542	1290.17282	1351.77257	-203.17899	1292.06740	1354.02735	-249.46381	1223.89922	1261.33837	-9.75877	1130.73285	1070.48050	-72.01034	1121.30549	1084.45636	-4.32094	1151.82308	1014.31857	33.31260	1158.55815	838.23621	21.69340	1121.97161	853.57657	51.57279	1319.98194	1265.96910	-434.41442	1304.97537	1055.75204	-393.60262	1336.44067	1074.61638	-466.23472	1411.45568	1059.12449	-452.52964	1546.70223	966.70941	-383.75436	1531.09398	943.25514	-426.22548	1260.26305	849.37740	-125.65028	1261.43356	843.43345	-315.11305	1271.17741	845.66821	-148.29576	1280.00984	855.75025	-317.18356	
117	1.16000000	1429.53737	492.81910	-108.85331	1487.97177	407.59247	-126.21825	1465.39594	86.73740	-151.59044	1407.44844	55.00041	-203.38342	1589.08048	49.05473	-119.48062	1617.60024	84.33570	-173.82296	1167.90113	476.82381	-361.79169	1148.02280	380.37744	-346.49985	887.51458	162.10321	-325.88360	804.30786	171.98385	-273.91452	932.66209	43.70499	-349.52713	987.59890	48.77127	-294.43591	1499.83083	295.52888	-136.93107	1427.94546	395.51067	-80.72017	1433.81644	281.05588	-86.91029	1094.34893	440.28955	-385.48510	1011.21116	352.11076	-386.56770	1378.39662	766.71118	-61.40841	1422.50111	667.74782	-85.72236	1384.65807	618.57776	-57.34056	1278.40805	716.52998	-44.27444	1329.67234	616.69348	-71.69087	1306.70862	702.55878	-379.74276	1289.21473	565.70641	-355.01814	1203.80900	709.48944	-416.59794	1183.91957	581.21470	-380.07421	1354.49746	942.61910	-101.89561	1147.96223	961.10674	-183.37059	1358.21693	928.07542	-357.69800	1153.45426	965.71014	-277.70890	1177.26922	1423.30123	-239.94789	1226.04699	1393.62556	-67.64131	1274.03248	1393.39061	-383.49879	1303.37742	1352.89593	-201.38668	1305.25014	1355.17768	-247.63951	1238.38101	1261.83540	-8.27572	1146.73629	1070.25108	-70.55057	1137.27936	1084.01799	-2.83176	1168.46333	1014.17691	34.68835	1176.88336	838.21496	22.96333	1140.18189	853.16183	52.79669	1331.78686	1266.16957	-433.56769	1315.19867	1056.13676	-391.33551	1345.88157	1074.32038	-464.81783	1420.77698	1057.60234	-451.94185	1554.73426	962.58394	-384.54503	1538.52244	939.53369	-426.86974	1274.75942	850.73178	-123.91123	1277.04028	843.64406	-313.32264	1285.54720	847.67692	-146.07197	1295.35705	855.92792	-314.70714	
118	1.17000000	1442.41279	493.61241	-108.23990	1498.55547	406.68322	-125.95986	1467.02931	86.61487	-151.55796	1408.08154	55.38012	-203.32771	1589.92149	47.21755	-119.33881	1619.10021	81.76537	-173.86012	1191.54061	474.61601	-363.13037	1169.53577	377.97809	-348.39391	900.68145	170.19439	-327.83687	818.99974	186.70448	-276.03336	936.22163	47.60162	-349.90265	991.40915	49.04970	-295.04987	1507.57298	294.39873	-136.92053	1438.87656	395.96912	-79.62415	1441.85184	281.39093	-85.87738	1117.57997	440.02823	-386.62452	1031.31430	355.04328	-387.95730	1392.65432	768.55322	-60.80106	1436.38331	669.45757	-85.17158	1398.90675	620.44793	-56.09049	1292.96365	718.70103	-42.21740	1343.85832	618.46723	-69.84268	1325.19081	703.05613	-379.09898	1310.85161	565.59821	-355.65482	1221.89262	708.04635	-415.42449	1204.98392	579.06747	-380.17796	1368.77789	944.44168	-100.38116	1162.37178	962.18342	-182.91245	1373.40760	928.48847	-355.62712	1168.37060	965.68893	-277.70344	1190.06397	1424.08366	-237.96902	1239.20087	1394.51484	-65.81833	1286.76483	1394.48091	-381.76245	1316.52139	1354.24825	-199.64809	1318.34685	1356.55186	-245.86341	1253.01125	1262.66246	-6.80808	1162.87388	1070.36337	-69.03060	1153.50026	1083.87538	-1.26407	1185.44015	1014.34362	36.07987	1195.75858	838.55003	24.18746	1158.93376	853.04630	54.02051	1343.41319	1266.65152	-432.77403	1325.17317	1056.89031	-389.21649	1355.08796	1074.29150	-463.40749	1429.76368	1056.17976	-451.43107	1562.05679	958.07276	-385.55818	1545.28558	935.62003	-427.77312	1289.16393	852.31429	-122.14407	1292.46531	843.99101	-311.48774	1299.78394	849.99938	-143.75738	1310.43694	856.24521	-312.12358	
119	1.18000000	1454.30043	494.23619	-107.57079	1508.07011	405.67423	-125.63999	1468.17641	86.56616	-151.51092	1408.49769	55.55166	-203.27302	1590.44759	45.92094	-119.13553	1620.16324	79.84056	-173.83466	1216.49391	472.29310	-364.53029	1192.38870	375.42478	-350.24360	915.82417	178.68307	-329.84053	836.49007	202.22538	-278.23087	940.66885	52.61125	-350.28628	996.07435	50.08437	-295.92354	1514.44746	293.27343	-136.82855	1448.74181	396.28923	-78.60438	1448.90684	281.64624	-84.97672	1142.43619	439.61282	-387.83443	1053.16787	357.85159	-389.40185	1406.76497	770.42178	-60.25332	1449.86789	671.06231	-84.71019	1412.70978	622.30306	-54.80505	1307.35521	721.05622	-39.96150	1357.51381	620.31278	-67.84140	1343.96991	703.70563	-378.56373	1333.34067	565.69093	-356.42183	1240.30521	706.38241	-414.19068	1226.94847	576.70032	-380.37118	1382.88356	946.44503	-98.88060	1176.57316	963.38352	-182.44836	1388.23234	929.04718	-353.59455	1183.02155	965.70072	-277.61267	1202.74368	1425.03400	-235.94653	1252.40478	1395.65697	-64.04970	1299.29255	1395.76686	-380.05925	1329.60039	1355.78537	-197.99062	1331.34824	1358.10121	-244.16665	1267.76727	1263.77334	-5.35866	1179.10712	1070.77632	-67.43034	1169.94474	1083.99678	0.40187	1202.73550	1014.78332	37.48883	1215.22297	839.24750	25.36215	1178.19802	853.19766	55.24902	1354.83431	1267.37328	-432.02235	1334.93873	1057.96666	-387.23062	1364.07498	1074.49960	-462.01007	1438.43052	1054.84619	-451.00281	1568.73104	953.23058	-386.79069	1551.39300	931.53391	-428.93505	1303.39988	854.05805	-120.35770	1307.62288	844.44951	-309.62072	1313.79998	852.55495	-141.36692	1325.19215	856.66249	-309.46682	
